<svg xml:space="preserve" viewBox="93 145 316 179" version="1.1" xmlns:xlink="http://www.w3.org/1999/xlink" xmlns="http://www.w3.org/2000/svg" style="max-height: 500px" width="316" height="179">
<desc>Created with Fabric.js 3.6.3</desc>
<defs>
</defs>
<g style="" transform="matrix(1 0 0 1 254.999999972507 244.0000000000001)">
<path d="M-22.41 54.45Q-16.64 69.13-6.01 69.59L-6.01 69.59L-6.01 74.33Q-15.71 73.63-31.42 73.63L-31.42 73.63Q-51.64 73.63-61.69 74.33L-61.69 74.33L-61.69 69.59Q-52.68 69.24-48.81 67.39Q-44.94 65.55-44.94 60.81L-44.94 60.81Q-44.94 56.77-47.71 49.72L-47.71 49.72L-62.27 10.90L-119.34 10.90L-129.04 35.97Q-133.78 47.99-133.78 55.38L-133.78 55.38Q-133.78 62.89-128.76 66.12Q-123.73 69.36-113.22 69.59L-113.22 69.59L-113.22 74.33Q-126.73 73.63-140.48 73.63L-140.48 73.63Q-151.11 73.63-158.16 74.33L-158.16 74.33L-158.16 69.59Q-146.37 66.93-139.56 49.03L-139.56 49.03L-83.87-94.34L-80.06-94.34L-22.41 54.45ZM-64.00 6.16L-90.46-64.42L-117.61 6.16L-64.00 6.16Z" opacity="1" fill="#5EB299"/>
<path d="M131.70 74.33Q131.47 69.47 129.74 65.14Q128.00 60.81 125.23 60.81L125.23 60.81Q123.73 60.81 122.34 61.56Q120.96 62.31 117.49 64.85L117.49 64.85Q109.17 71.21 100.34 74.44Q91.50 77.68 80.52 77.68L80.52 77.68Q56.26 77.68 38.82 67.62Q21.37 57.57 12.19 38.63Q3.00 19.68 3.00-6.54L3.00-6.54Q3.00-33.69 12.77-54.08Q22.53-74.47 39.86-85.51Q57.19-96.54 79.14-96.54L79.14-96.54Q88.73-96.54 96.18-94.52Q103.63-92.50 109.12-89.38Q114.60-86.26 121.77-81.17L121.77-81.17Q124.77-78.75 126.50-78.75L126.50-78.75Q131.01-78.75 132.39-93.19L132.39-93.19L137.82-93.19Q136.90-77.82 136.90-38.78L136.90-38.78L131.47-38.78Q129.39-51.48 126.96-59.63Q124.54-67.77 119.57-73.78L119.57-73.78Q112.64-82.33 101.66-87.30Q90.69-92.26 78.67-92.26L78.67-92.26Q63.08-92.26 51.29-82.10Q39.51-71.93 33.04-53.16Q26.57-34.39 26.57-9.20L26.57-9.20Q26.57 19.22 32.64 37.36Q38.70 55.49 51.12 64.22Q63.54 72.94 82.95 72.94L82.95 72.94Q97.16 72.94 107.56 65.55L107.56 65.55Q111.83 62.66 113.10 60.00Q114.37 57.34 114.37 52.61L114.37 52.61L114.37 29.85Q114.37 20.03 112.52 15.46Q110.68 10.90 105.82 9.23Q100.97 7.55 90.46 7.09L90.46 7.09L90.46 2.35Q102.13 3.16 123.85 3.16L123.85 3.16Q140.48 3.16 148.45 2.35L148.45 2.35L148.45 7.09Q142.91 7.55 140.54 8.99Q138.17 10.44 137.30 14.37Q136.44 18.29 136.44 27.42L136.44 27.42L136.44 74.33L131.70 74.33Z" opacity="1" fill="#5EB299"/>
</g>
</svg>