<svg style="max-height: 500px" xmlns="http://www.w3.org/2000/svg" xmlns:xlink="http://www.w3.org/1999/xlink" version="1.1" viewBox="92 145 323.69826435246995 177.072" xml:space="preserve" width="323.69826435246995" height="177.072">
    <desc>Created with Fabric.js 3.6.3</desc>
    <defs/>
    <g transform="matrix(0.5 0 0 0.5 250.25 250.25)">
        <rect style="stroke: none;&#10;                stroke-width: 1;&#10;                stroke-dasharray: none;&#10;                stroke-linecap: butt;&#10;                stroke-dashoffset: 0;&#10;                stroke-linejoin: miter;&#10;                stroke-miterlimit: 4;&#10;                fill: #000000;&#10;                fill-rule: nonzero;&#10;                opacity: 1;" x="-500" y="-500" rx="0" ry="0" width="1000" height="1000"/>
    </g>
    <g transform="matrix(1 0 0 1 254.999999972507 244.0000000000001)" style="">
        <path fill="#5EB299" opacity="1" d="M-22.41 54.45Q-16.64 69.13-6.01 69.59L-6.01 69.59L-6.01 74.33Q-15.71 73.63-31.42 73.63L-31.42 73.63Q-51.64 73.63-61.69 74.33L-61.69 74.33L-61.69 69.59Q-52.68 69.24-48.81 67.39Q-44.94 65.55-44.94 60.81L-44.94 60.81Q-44.94 56.77-47.71 49.72L-47.71 49.72L-62.27 10.90L-119.34 10.90L-129.04 35.97Q-133.78 47.99-133.78 55.38L-133.78 55.38Q-133.78 62.89-128.76 66.12Q-123.73 69.36-113.22 69.59L-113.22 69.59L-113.22 74.33Q-126.73 73.63-140.48 73.63L-140.48 73.63Q-151.11 73.63-158.16 74.33L-158.16 74.33L-158.16 69.59Q-146.37 66.93-139.56 49.03L-139.56 49.03L-83.87-94.34L-80.06-94.34L-22.41 54.45ZM-64.00 6.16L-90.46-64.42L-117.61 6.16L-64.00 6.16Z"/>
        <path fill="#5EB299" opacity="1" d="M131.70 74.33Q131.47 69.47 129.74 65.14Q128.00 60.81 125.23 60.81L125.23 60.81Q123.73 60.81 122.34 61.56Q120.96 62.31 117.49 64.85L117.49 64.85Q109.17 71.21 100.34 74.44Q91.50 77.68 80.52 77.68L80.52 77.68Q56.26 77.68 38.82 67.62Q21.37 57.57 12.19 38.63Q3.00 19.68 3.00-6.54L3.00-6.54Q3.00-33.69 12.77-54.08Q22.53-74.47 39.86-85.51Q57.19-96.54 79.14-96.54L79.14-96.54Q88.73-96.54 96.18-94.52Q103.63-92.50 109.12-89.38Q114.60-86.26 121.77-81.17L121.77-81.17Q124.77-78.75 126.50-78.75L126.50-78.75Q131.01-78.75 132.39-93.19L132.39-93.19L137.82-93.19Q136.90-77.82 136.90-38.78L136.90-38.78L131.47-38.78Q129.39-51.48 126.96-59.63Q124.54-67.77 119.57-73.78L119.57-73.78Q112.64-82.33 101.66-87.30Q90.69-92.26 78.67-92.26L78.67-92.26Q63.08-92.26 51.29-82.10Q39.51-71.93 33.04-53.16Q26.57-34.39 26.57-9.20L26.57-9.20Q26.57 19.22 32.64 37.36Q38.70 55.49 51.12 64.22Q63.54 72.94 82.95 72.94L82.95 72.94Q97.16 72.94 107.56 65.55L107.56 65.55Q111.83 62.66 113.10 60.00Q114.37 57.34 114.37 52.61L114.37 52.61L114.37 29.85Q114.37 20.03 112.52 15.46Q110.68 10.90 105.82 9.23Q100.97 7.55 90.46 7.09L90.46 7.09L90.46 2.35Q102.13 3.16 123.85 3.16L123.85 3.16Q140.48 3.16 148.45 2.35L148.45 2.35L148.45 7.09Q142.91 7.55 140.54 8.99Q138.17 10.44 137.30 14.37Q136.44 18.29 136.44 27.42L136.44 27.42L136.44 74.33L131.70 74.33Z"/>
    </g>
    <g transform="matrix(0.4695431472081219 0 0 0.0592033383728436 250.00000000000003 238.32611531890038)">
        <rect style="stroke: none;&#10;                stroke-width: 1;&#10;                stroke-dasharray: none;&#10;                stroke-linecap: butt;&#10;                stroke-dashoffset: 0;&#10;                stroke-linejoin: miter;&#10;                stroke-miterlimit: 4;&#10;                fill: #000000;&#10;                fill-rule: evenodd;&#10;                opacity: 1;" x="-393.5" y="-393.5" rx="0" ry="0" width="787" height="787"/>
    </g>
    <g transform="matrix(1 0 0 1 263.9391006401891 238.46176364971393)" style="">
        <path fill="#5EB299" opacity="1" d="M-116.47 6.60C-115.93 7.96-115.33 8.19-114.77 8.19C-114.25 8.19-113.45 8.09-112.99 7.83C-113.45 7.52-113.76 6.93-114.18 5.87L-119.04-6.46C-119.53-7.67-120.05-8.93-120.59-10.01C-121.64-10.01-122.65-9.88-123.06-9.78C-123.42-8.37-123.86-7.08-124.27-6.07L-129.27 6.60C-129.47 7.16-129.55 7.52-129.55 7.75C-129.55 8.09-129.32 8.19-129.03 8.19C-128.62 8.19-127.95 8.09-127.39 7.83C-127.39 7.42-127.23 6.80-126.87 5.87L-125.71 2.81L-117.96 2.81ZM-121.44-6.07L-118.53 1.37L-125.15 1.37L-121.87-7.15C-121.72-6.82-121.59-6.46-121.44-6.07Z"/>
        <path fill="#5EB299" opacity="1" d="M-104.55 6.60C-104.55 7.96-104.11 8.19-103.57 8.19C-103.13 8.19-102.38 8.09-101.84 7.83C-102.10 7.52-102.12 6.90-102.12 5.87L-102.12 0.72C-101.64 0.70-101.15 0.70-100.61 0.70L-99.01 0.70L-95.30 6.54C-94.48 7.99-93.76 8.19-93.16 8.19C-92.62 8.19-91.93 8.09-91.46 7.83C-92.00 7.50-92.47 6.85-93.14 5.80L-96.61 0.36C-94.17-0.38-92.65-2.26-92.65-4.73C-92.65-7.82-95.09-9.94-98.73-9.94L-102.49-9.94C-103.46-9.91-104.39-9.81-104.80-9.70C-104.60-8.24-104.55-7.28-104.55-6.00ZM-102.18-8.49L-98.93-8.49C-96.67-8.49-95.12-6.90-95.12-4.58C-95.12-2.31-96.61-0.74-98.83-0.74L-100.99-0.74C-101.38-0.74-101.76-0.74-102.12-0.72L-102.12-6.38C-102.12-7.08-102.15-7.80-102.18-8.49Z"/>
        <path fill="#5EB299" opacity="1" d="M-76.25-9.94L-80.80-9.94C-81.83-9.94-82.86-9.81-83.30-9.70C-83.10-8.24-83.04-7.28-83.04-6.00L-83.04 6.83C-83.04 7.37-82.94 7.93-82.81 8.27C-81.34 8.11-80.39 8.09-79.10 8.09L-76.61 8.09C-71.56 8.09-68.19 4.36-68.19-1.13C-68.19-6.38-71.43-9.94-76.25-9.94ZM-80.62 5.87L-80.62-6.38C-80.62-7.08-80.65-7.80-80.67-8.49L-76.48-8.49C-73.08-8.49-70.79-5.40-70.79-0.87C-70.79 3.58-73.03 6.65-76.35 6.65L-79.49 6.65C-79.88 6.65-80.26 6.65-80.62 6.67C-80.65 6.44-80.62 6.18-80.62 5.87Z"/>
        <path fill="#5EB299" opacity="1" d="M-47.56 6.60C-47.02 7.96-46.43 8.19-45.86 8.19C-45.35 8.19-44.55 8.09-44.08 7.83C-44.55 7.52-44.86 6.93-45.27 5.87L-50.14-6.46C-50.62-7.67-51.14-8.93-51.68-10.01C-52.74-10.01-53.74-9.88-54.15-9.78C-54.51-8.37-54.95-7.08-55.36-6.07L-60.36 6.60C-60.56 7.16-60.64 7.52-60.64 7.75C-60.64 8.09-60.41 8.19-60.13 8.19C-59.71 8.19-59.04 8.09-58.48 7.83C-58.48 7.42-58.32 6.80-57.96 5.87L-56.80 2.81L-49.05 2.81ZM-52.53-6.07L-49.62 1.37L-56.24 1.37L-52.97-7.15C-52.81-6.82-52.68-6.46-52.53-6.07Z"/>
        <path fill="#5EB299" opacity="1" d="M-35.64 6.60C-35.64 7.96-35.28 8.19-34.81 8.19C-34.43 8.19-33.81 8.09-33.32 7.83C-33.58 7.52-33.60 6.90-33.60 5.87L-33.60-5.89L-23.77 7.73C-23.61 8.09-23.33 8.19-23.05 8.19C-22.63 8.19-21.96 8.09-21.45 7.83C-21.81 7.52-21.86 6.90-21.86 5.87L-21.86-6.46C-21.86-7.67-21.91-8.93-22.02-10.01C-22.87-10.01-23.72-9.88-24.08-9.78C-23.92-8.31-23.90-7.36-23.90-6.07L-23.90 3.69L-33.76-9.96L-33.76-10.01C-34.63-10.01-35.54-9.88-35.90-9.78C-35.69-8.31-35.64-7.36-35.64-6.07Z"/>
        <path fill="#5EB299" opacity="1" d="M0.31-8.49C1.65-8.49 1.88-8.78 1.88-9.14C1.88-9.42 1.80-9.88 1.55-10.24C1.24-9.99 0.59-9.94-0.44-9.94L-9.55-9.94C-10.76-9.94-12.05-9.88-13.13-9.76C-13.13-9.21-13.00-8.65-12.87-8.31C-11.43-8.47-10.45-8.49-9.17-8.49L-6.90-8.49C-6.82-7.64-6.82-6.95-6.82-6.07L-6.82 6.60C-6.82 7.96-6.33 8.19-5.79 8.19C-5.30 8.19-4.53 8.09-3.97 7.83C-4.33 7.52-4.40 6.90-4.40 5.87L-4.40-6.46C-4.40-7.15-4.43-7.82-4.45-8.49Z"/>
        <path fill="#5EB299" opacity="1" d=""/>
        <path fill="#5EB299" opacity="1" d="M24.85-1.03C24.85-5.53 27.32-8.60 30.87-8.60C32.99-8.60 34.56-7.49 35.17-5.92C36.38-5.92 37.13-6.18 37.13-6.90C37.13-8.08 34.92-10.06 30.98-10.06C25.62-10.06 22.25-6.23 22.25-0.64C22.25 4.61 25.47 8.22 30.77 8.22C33.66 8.22 36.15 7.01 37.34 5.33L37.34 2.27C37.34 1.06 37.29-0.28 37.16-1.36L34.56-1.36C33.35-1.36 32.06-1.31 30.98-1.18C30.98-0.64 31.11-0.07 31.23 0.26C32.63 0.11 33.58 0.08 34.81 0.08C34.89 0.98 34.92 1.75 34.92 2.66L34.92 5.77C34.14 6.26 32.96 6.75 30.93 6.75C27.27 6.75 24.85 3.58 24.85-1.03Z"/>
        <path fill="#5EB299" opacity="1" d="M47.10 6.60C47.10 7.96 47.53 8.19 48.08 8.19C48.51 8.19 49.26 8.09 49.80 7.83C49.54 7.52 49.52 6.90 49.52 5.87L49.52 0.72C50.01 0.70 50.50 0.70 51.04 0.70L52.63 0.70L56.34 6.54C57.16 7.99 57.89 8.19 58.48 8.19C59.02 8.19 59.71 8.09 60.18 7.83C59.64 7.50 59.17 6.85 58.50 5.80L55.03 0.36C57.47-0.38 58.99-2.26 58.99-4.73C58.99-7.82 56.55-9.94 52.92-9.94L49.16-9.94C48.18-9.91 47.25-9.81 46.84-9.70C47.05-8.24 47.10-7.28 47.10-6.00ZM49.47-8.49L52.71-8.49C54.98-8.49 56.52-6.90 56.52-4.58C56.52-2.31 55.03-0.74 52.81-0.74L50.65-0.74C50.26-0.74 49.88-0.74 49.52-0.72L49.52-6.38C49.52-7.08 49.49-7.80 49.47-8.49Z"/>
        <path fill="#5EB299" opacity="1" d="M67.05-0.72C67.05 4.59 70.32 8.22 75.14 8.22C80.19 8.22 83.61 4.41 83.61-1.13C83.61-6.43 80.34-10.06 75.50-10.06C70.48-10.06 67.05-6.25 67.05-0.72ZM69.65-0.97C69.65-5.51 71.92-8.60 75.27-8.60C78.67-8.60 81.01-5.46 81.01-0.87C81.01 3.66 78.74 6.75 75.37 6.75C71.97 6.75 69.65 3.61 69.65-0.97Z"/>
        <path fill="#5EB299" opacity="1" d="M92.96 1.19C92.96 5.39 95.84 8.22 100.12 8.22C104.60 8.22 107.64 5.23 107.64 0.85L107.64-6.46C107.64-7.67 107.58-8.93 107.45-10.01C106.48-10.01 105.47-9.88 105.03-9.78C105.19-8.31 105.21-7.36 105.21-6.07L105.21 1.09C105.21 4.46 103.23 6.75 100.32 6.75C97.39 6.75 95.38 4.43 95.38 1.03L95.38-6.46C95.38-7.67 95.33-8.93 95.20-10.01C94.17-10.01 93.14-9.88 92.70-9.78C92.91-8.31 92.96-7.36 92.96-6.07Z"/>
        <path fill="#5EB299" opacity="1" d="M117.73 6.60C117.73 7.96 118.17 8.19 118.71 8.19C119.15 8.19 119.89 8.09 120.43 7.83C120.18 7.52 120.15 6.90 120.15 5.87L120.15 0.85C120.64 0.83 121.13 0.83 121.67 0.83L122.96 0.83C126.87 0.83 129.52-1.41 129.52-4.68C129.52-7.80 127.00-9.94 123.32-9.94L119.97-9.94C118.94-9.94 117.91-9.81 117.47-9.70C117.68-8.24 117.73-7.28 117.73-6.00ZM120.10-8.49L123.09-8.49C125.43-8.49 127.05-6.87 127.05-4.53C127.05-2.21 125.48-0.61 123.19-0.61L121.28-0.61C120.90-0.61 120.51-0.61 120.15-0.59L120.15-6.38C120.15-7.08 120.12-7.80 120.10-8.49Z"/>
    </g>
    <g transform="matrix(1 0 0 1 250.24999999999997 351.0820412696386)" style="">
        <path fill="#80C2AE" opacity="0.75" d="M-111.54 3.52L-111.54-0.18L-108.15-0.18L-108.15-0.96L-111.54-0.96L-111.54-4.51L-107.92-4.51L-107.92-5.29L-112.39-5.29L-112.39 4.30L-107.77 4.30L-107.77 3.52Z"/>
        <path fill="#80C2AE" opacity="0.75" d="M-102.09 4.30L-104.14 0.71L-102.18-2.89L-103.10-2.89L-104.62-0.07L-106.14-2.89L-107.06-2.89L-105.09 0.71L-107.15 4.30L-106.21 4.30L-104.62 1.37L-103.03 4.30Z"/>
        <path fill="#80C2AE" opacity="0.75" d="M-98.99 4.44C-97.56 4.44-96.65 3.52-96.61 1.88L-97.43 1.88C-97.47 3.08-98.03 3.65-98.99 3.65C-99.91 3.65-100.47 3.08-100.47 1.88L-100.47-0.49C-100.47-1.70-99.91-2.26-98.99-2.26C-98.03-2.26-97.48-1.70-97.44-0.49L-96.62-0.49C-96.66-2.14-97.56-3.05-98.99-3.05C-100.37-3.05-101.29-2.14-101.29-0.49L-101.29 1.88C-101.29 3.52-100.37 4.44-98.99 4.44Z"/>
        <path fill="#80C2AE" opacity="0.75" d="M-91.36 2.10C-91.47 3.15-91.99 3.65-93.03 3.65C-93.98 3.65-94.55 3.08-94.55 1.88L-94.55 1.10L-90.65 1.10L-90.65-0.49C-90.65-2.14-91.61-3.05-93.04-3.05C-94.44-3.05-95.37-2.14-95.37-0.49L-95.37 1.88C-95.37 3.52-94.45 4.44-93.06 4.44C-91.55 4.44-90.66 3.61-90.55 2.10ZM-93.03-2.26C-92.04-2.26-91.45-1.70-91.45-0.49L-91.45 0.34L-94.55 0.34L-94.55-0.49C-94.55-1.70-93.98-2.26-93.03-2.26Z"/>
        <path fill="#80C2AE" opacity="0.75" d="M-88.99 4.30L-88.18 4.30L-88.18-5.60L-88.99-5.60Z"/>
        <path fill="#80C2AE" opacity="0.75" d="M-86.29 4.30L-85.48 4.30L-85.48-5.60L-86.29-5.60Z"/>
        <path fill="#80C2AE" opacity="0.75" d="M-79.80 2.10C-79.91 3.15-80.43 3.65-81.47 3.65C-82.41 3.65-82.99 3.08-82.99 1.88L-82.99 1.10L-79.08 1.10L-79.08-0.49C-79.08-2.14-80.04-3.05-81.48-3.05C-82.88-3.05-83.81-2.14-83.81-0.49L-83.81 1.88C-83.81 3.52-82.89 4.44-81.49 4.44C-79.99 4.44-79.10 3.61-78.99 2.10ZM-81.47-2.26C-80.48-2.26-79.89-1.70-79.89-0.49L-79.89 0.34L-82.99 0.34L-82.99-0.49C-82.99-1.70-82.41-2.26-81.47-2.26Z"/>
        <path fill="#80C2AE" opacity="0.75" d="M-74.80-3.05C-75.67-3.05-76.29-2.64-76.66-2.00L-76.80-2.89L-77.47-2.89L-77.47 4.30L-76.66 4.30L-76.66-0.05C-76.66-1.45-76.00-2.29-75.00-2.29C-74.06-2.29-73.67-1.63-73.67-0.18L-73.67 4.30L-72.86 4.30L-72.86-0.30C-72.86-2.27-73.63-3.05-74.80-3.05Z"/>
        <path fill="#80C2AE" opacity="0.75" d="M-69.01 4.44C-67.59 4.44-66.67 3.52-66.63 1.88L-67.45 1.88C-67.49 3.08-68.05 3.65-69.01 3.65C-69.93 3.65-70.49 3.08-70.49 1.88L-70.49-0.49C-70.49-1.70-69.93-2.26-69.01-2.26C-68.05-2.26-67.51-1.70-67.47-0.49L-66.64-0.49C-66.68-2.14-67.59-3.05-69.01-3.05C-70.40-3.05-71.32-2.14-71.32-0.49L-71.32 1.88C-71.32 3.52-70.40 4.44-69.01 4.44Z"/>
        <path fill="#80C2AE" opacity="0.75" d="M-61.38 2.10C-61.49 3.15-62.01 3.65-63.05 3.65C-64.00 3.65-64.57 3.08-64.57 1.88L-64.57 1.10L-60.67 1.10L-60.67-0.49C-60.67-2.14-61.63-3.05-63.07-3.05C-64.47-3.05-65.40-2.14-65.40-0.49L-65.40 1.88C-65.40 3.52-64.48 4.44-63.08 4.44C-61.57 4.44-60.68 3.61-60.57 2.10ZM-63.05-2.26C-62.07-2.26-61.48-1.70-61.48-0.49L-61.48 0.34L-64.57 0.34L-64.57-0.49C-64.57-1.70-64.00-2.26-63.05-2.26Z"/>
        <path fill="#80C2AE" opacity="0.75" d=""/>
        <path fill="#80C2AE" opacity="0.75" d="M-55.52-4.22C-55.12-4.22-54.86-4.48-54.86-4.88C-54.86-5.27-55.12-5.53-55.52-5.53C-55.92-5.53-56.18-5.27-56.18-4.88C-56.18-4.48-55.92-4.22-55.52-4.22ZM-55.92 4.30L-55.11 4.30L-55.11-2.89L-55.92-2.89Z"/>
        <path fill="#80C2AE" opacity="0.75" d="M-50.63-3.05C-51.51-3.05-52.12-2.64-52.49-2.00L-52.63-2.89L-53.30-2.89L-53.30 4.30L-52.49 4.30L-52.49-0.05C-52.49-1.45-51.83-2.29-50.83-2.29C-49.89-2.29-49.50-1.63-49.50-0.18L-49.50 4.30L-48.70 4.30L-48.70-0.30C-48.70-2.27-49.46-3.05-50.63-3.05Z"/>
        <path fill="#80C2AE" opacity="0.75" d=""/>
        <path fill="#80C2AE" opacity="0.75" d="M-41.33 4.47C-39.75 4.47-38.78 3.45-38.64 1.70L-39.46 1.70C-39.60 3.03-40.23 3.70-41.33 3.70C-42.38 3.70-43.12 3.02-43.12 1.59L-43.12-2.57C-43.12-4.00-42.41-4.68-41.38-4.68C-40.30-4.68-39.64-4.04-39.55-2.68L-38.72-2.68C-38.82-4.46-39.82-5.45-41.38-5.45C-42.89-5.45-43.94-4.42-43.94-2.57L-43.94 1.59C-43.94 3.44-42.86 4.47-41.33 4.47Z"/>
        <path fill="#80C2AE" opacity="0.75" d="M-35.04 4.47C-33.60 4.47-32.64 3.55-32.64 1.87L-32.64-0.45C-32.64-2.14-33.60-3.05-35.04-3.05C-36.48-3.05-37.44-2.14-37.44-0.45L-37.44 1.87C-37.44 3.55-36.48 4.47-35.04 4.47ZM-35.04 3.67C-36.01 3.67-36.61 3.11-36.61 1.87L-36.61-0.45C-36.61-1.70-36.01-2.26-35.04-2.26C-34.07-2.26-33.46-1.70-33.46-0.45L-33.46 1.87C-33.46 3.11-34.07 3.67-35.04 3.67Z"/>
        <path fill="#80C2AE" opacity="0.75" d="M-28.34-3.05C-29.22-3.05-29.83-2.64-30.20-2.00L-30.34-2.89L-31.01-2.89L-31.01 4.30L-30.20 4.30L-30.20-0.05C-30.20-1.45-29.54-2.29-28.54-2.29C-27.60-2.29-27.22-1.63-27.22-0.18L-27.22 4.30L-26.41 4.30L-26.41-0.30C-26.41-2.27-27.17-3.05-28.34-3.05Z"/>
        <path fill="#80C2AE" opacity="0.75" d="M-22.78 4.47C-21.43 4.47-20.54 3.67-20.54 2.48C-20.54-0.05-24.24 0.59-24.24-1.09C-24.24-1.83-23.75-2.27-22.90-2.27C-22.00-2.27-21.47-1.74-21.47-0.85L-20.67-0.85C-20.67-2.18-21.56-3.05-22.90-3.05C-24.20-3.05-25.06-2.29-25.06-1.12C-25.06 1.34-21.37 0.70-21.37 2.45C-21.37 3.22-21.89 3.67-22.78 3.67C-23.76 3.67-24.35 3.11-24.35 2.17L-25.16 2.17C-25.16 3.55-24.20 4.47-22.78 4.47Z"/>
        <path fill="#80C2AE" opacity="0.75" d="M-16.69 3.61C-17.54 3.61-17.93 3.11-17.93 2.17L-17.93-2.14L-16.45-2.14L-16.45-2.89L-17.93-2.89L-17.93-4.55L-18.73-4.55L-18.73-2.89L-19.83-2.89L-19.83-2.14L-18.73-2.14L-18.73 2.17C-18.73 3.55-18.01 4.37-16.69 4.37L-16.28 4.37L-16.28 3.61Z"/>
        <path fill="#80C2AE" opacity="0.75" d="M-12.42-3.04C-13.31-3.04-13.93-2.61-14.30-1.97L-14.30-1.98L-14.43-2.89L-15.10-2.89L-15.10 4.30L-14.30 4.30L-14.30-0.05C-14.30-1.42-13.62-2.24-12.60-2.24C-12.24-2.24-11.95-2.19-11.69-2.09L-11.69-2.97C-11.91-3.03-12.15-3.04-12.42-3.04Z"/>
        <path fill="#80C2AE" opacity="0.75" d="M-6.86-2.89L-6.86 1.47C-6.86 2.87-7.51 3.70-8.51 3.70C-9.46 3.70-9.84 3.04-9.84 1.59L-9.84-2.89L-10.65-2.89L-10.65 1.71C-10.65 3.69-9.88 4.47-8.72 4.47C-7.84 4.47-7.23 4.06-6.86 3.41L-6.72 4.30L-6.05 4.30L-6.05-2.89Z"/>
        <path fill="#80C2AE" opacity="0.75" d="M-2.12 4.44C-0.69 4.44 0.23 3.52 0.27 1.88L-0.55 1.88C-0.60 3.08-1.16 3.65-2.12 3.65C-3.03 3.65-3.60 3.08-3.60 1.88L-3.60-0.49C-3.60-1.70-3.03-2.26-2.12-2.26C-1.16-2.26-0.61-1.70-0.57-0.49L0.25-0.49C0.21-2.14-0.69-3.05-2.12-3.05C-3.50-3.05-4.42-2.14-4.42-0.49L-4.42 1.88C-4.42 3.52-3.50 4.44-2.12 4.44Z"/>
        <path fill="#80C2AE" opacity="0.75" d="M4.16 3.61C3.31 3.61 2.92 3.11 2.92 2.17L2.92-2.14L4.40-2.14L4.40-2.89L2.92-2.89L2.92-4.55L2.12-4.55L2.12-2.89L1.02-2.89L1.02-2.14L2.12-2.14L2.12 2.17C2.12 3.55 2.84 4.37 4.16 4.37L4.57 4.37L4.57 3.61Z"/>
        <path fill="#80C2AE" opacity="0.75" d="M6.14-4.22C6.54-4.22 6.80-4.48 6.80-4.88C6.80-5.27 6.54-5.53 6.14-5.53C5.75-5.53 5.49-5.27 5.49-4.88C5.49-4.48 5.75-4.22 6.14-4.22ZM5.75 4.30L6.56 4.30L6.56-2.89L5.75-2.89Z"/>
        <path fill="#80C2AE" opacity="0.75" d="M10.58 4.47C12.02 4.47 12.98 3.55 12.98 1.87L12.98-0.45C12.98-2.14 12.02-3.05 10.58-3.05C9.14-3.05 8.19-2.14 8.19-0.45L8.19 1.87C8.19 3.55 9.14 4.47 10.58 4.47ZM10.58 3.67C9.61 3.67 9.01 3.11 9.01 1.87L9.01-0.45C9.01-1.70 9.61-2.26 10.58-2.26C11.56-2.26 12.16-1.70 12.16-0.45L12.16 1.87C12.16 3.11 11.56 3.67 10.58 3.67Z"/>
        <path fill="#80C2AE" opacity="0.75" d="M17.28-3.05C16.41-3.05 15.79-2.64 15.42-2.00L15.28-2.89L14.61-2.89L14.61 4.30L15.42 4.30L15.42-0.05C15.42-1.45 16.08-2.29 17.08-2.29C18.02-2.29 18.41-1.63 18.41-0.18L18.41 4.30L19.21 4.30L19.21-0.30C19.21-2.27 18.45-3.05 17.28-3.05Z"/>
        <path fill="#80C2AE" opacity="0.75" d="M20.73 3.24L20.45 6.08L21.02 6.08L21.65 3.24Z"/>
        <path fill="#80C2AE" opacity="0.75" d=""/>
        <path fill="#80C2AE" opacity="0.75" d="M28.56-5.29L26.26-5.29L26.26 4.30L27.11 4.30L27.11 0.67L28.56 0.67C30.32 0.67 31.30-0.37 31.30-2.34C31.30-4.22 30.32-5.29 28.56-5.29ZM28.56-0.14L27.11-0.14L27.11-4.48L28.56-4.48C29.85-4.48 30.45-3.77 30.45-2.34C30.45-0.82 29.85-0.14 28.56-0.14Z"/>
        <path fill="#80C2AE" opacity="0.75" d="M34.49-3.05C33.16-3.05 32.27-2.24 32.22-1.01L33.02-1.01C33.08-1.81 33.64-2.27 34.46-2.27C35.39-2.27 35.89-1.71 35.89-0.66L35.89 0.11L34.46 0.11C32.89 0.11 32.00 0.88 32.00 2.26C32.00 3.66 32.96 4.47 34.27 4.47C35.05 4.47 35.60 4.11 35.93 3.63L36.00 4.30L36.70 4.30L36.70-0.67C36.70-2.14 35.86-3.05 34.49-3.05ZM34.39 3.67C33.46 3.67 32.82 3.22 32.82 2.28C32.82 1.36 33.38 0.87 34.43 0.87L35.89 0.87L35.89 2.28C35.89 3.10 35.31 3.67 34.39 3.67Z"/>
        <path fill="#80C2AE" opacity="0.75" d="M41.19-3.04C40.30-3.04 39.68-2.61 39.31-1.97L39.31-1.98L39.18-2.89L38.50-2.89L38.50 4.30L39.31 4.30L39.31-0.05C39.31-1.42 39.98-2.24 41.01-2.24C41.37-2.24 41.65-2.19 41.92-2.09L41.92-2.97C41.70-3.03 41.46-3.04 41.19-3.04Z"/>
        <path fill="#80C2AE" opacity="0.75" d="M45.52 3.61C44.67 3.61 44.29 3.11 44.29 2.17L44.29-2.14L45.76-2.14L45.76-2.89L44.29-2.89L44.29-4.55L43.48-4.55L43.48-2.89L42.38-2.89L42.38-2.14L43.48-2.14L43.48 2.17C43.48 3.55 44.20 4.37 45.52 4.37L45.93 4.37L45.93 3.61Z"/>
        <path fill="#80C2AE" opacity="0.75" d="M49.78-3.05C48.90-3.05 48.29-2.64 47.92-2.00L47.78-2.89L47.11-2.89L47.11 4.30L47.92 4.30L47.92-0.05C47.92-1.45 48.57-2.29 49.57-2.29C50.52-2.29 50.90-1.63 50.90-0.18L50.90 4.30L51.71 4.30L51.71-0.30C51.71-2.27 50.94-3.05 49.78-3.05Z"/>
        <path fill="#80C2AE" opacity="0.75" d="M57.27 2.10C57.16 3.15 56.64 3.65 55.60 3.65C54.66 3.65 54.08 3.08 54.08 1.88L54.08 1.10L57.99 1.10L57.99-0.49C57.99-2.14 57.03-3.05 55.59-3.05C54.19-3.05 53.26-2.14 53.26-0.49L53.26 1.88C53.26 3.52 54.18 4.44 55.57 4.44C57.08 4.44 57.97 3.61 58.08 2.10ZM55.60-2.26C56.59-2.26 57.18-1.70 57.18-0.49L57.18 0.34L54.08 0.34L54.08-0.49C54.08-1.70 54.66-2.26 55.60-2.26Z"/>
        <path fill="#80C2AE" opacity="0.75" d="M62.29-3.04C61.40-3.04 60.78-2.61 60.41-1.97L60.41-1.98L60.27-2.89L59.60-2.89L59.60 4.30L60.41 4.30L60.41-0.05C60.41-1.42 61.08-2.24 62.11-2.24C62.47-2.24 62.75-2.19 63.01-2.09L63.01-2.97C62.79-3.03 62.56-3.04 62.29-3.04Z"/>
        <path fill="#80C2AE" opacity="0.75" d="M66.04 4.47C67.38 4.47 68.27 3.67 68.27 2.48C68.27-0.05 64.57 0.59 64.57-1.09C64.57-1.83 65.07-2.27 65.92-2.27C66.82-2.27 67.34-1.74 67.34-0.85L68.15-0.85C68.15-2.18 67.26-3.05 65.92-3.05C64.62-3.05 63.75-2.29 63.75-1.12C63.75 1.34 67.45 0.70 67.45 2.45C67.45 3.22 66.93 3.67 66.04 3.67C65.05 3.67 64.47 3.11 64.47 2.17L63.66 2.17C63.66 3.55 64.62 4.47 66.04 4.47Z"/>
        <path fill="#80C2AE" opacity="0.75" d=""/>
        <path fill="#80C2AE" opacity="0.75" d="M73.18-4.22C73.58-4.22 73.84-4.48 73.84-4.88C73.84-5.27 73.58-5.53 73.18-5.53C72.78-5.53 72.52-5.27 72.52-4.88C72.52-4.48 72.78-4.22 73.18-4.22ZM72.78 4.30L73.59 4.30L73.59-2.89L72.78-2.89Z"/>
        <path fill="#80C2AE" opacity="0.75" d="M78.07-3.05C77.19-3.05 76.58-2.64 76.21-2.00L76.07-2.89L75.40-2.89L75.40 4.30L76.21 4.30L76.21-0.05C76.21-1.45 76.86-2.29 77.86-2.29C78.81-2.29 79.19-1.63 79.19-0.18L79.19 4.30L80.00 4.30L80.00-0.30C80.00-2.27 79.23-3.05 78.07-3.05Z"/>
        <path fill="#80C2AE" opacity="0.75" d=""/>
        <path fill="#80C2AE" opacity="0.75" d="M86.55 4.30L87.54 4.30L89.97-5.29L89.07-5.29L87.63 0.71C87.40 1.70 87.25 2.41 87.07 3.14L87.02 3.14C86.84 2.41 86.69 1.70 86.45 0.71L85.02-5.29L84.11-5.29Z"/>
        <path fill="#80C2AE" opacity="0.75" d="M91.43-4.22C91.82-4.22 92.08-4.48 92.08-4.88C92.08-5.27 91.82-5.53 91.43-5.53C91.03-5.53 90.77-5.27 90.77-4.88C90.77-4.48 91.03-4.22 91.43-4.22ZM91.03 4.30L91.84 4.30L91.84-2.89L91.03-2.89Z"/>
        <path fill="#80C2AE" opacity="0.75" d="M95.55 4.47C96.89 4.47 97.78 3.67 97.78 2.48C97.78-0.05 94.08 0.59 94.08-1.09C94.08-1.83 94.58-2.27 95.43-2.27C96.33-2.27 96.85-1.74 96.85-0.85L97.66-0.85C97.66-2.18 96.77-3.05 95.43-3.05C94.13-3.05 93.26-2.29 93.26-1.12C93.26 1.34 96.96 0.70 96.96 2.45C96.96 3.22 96.44 3.67 95.55 3.67C94.56 3.67 93.98 3.11 93.98 2.17L93.17 2.17C93.17 3.55 94.13 4.47 95.55 4.47Z"/>
        <path fill="#80C2AE" opacity="0.75" d="M99.55-4.22C99.95-4.22 100.21-4.48 100.21-4.88C100.21-5.27 99.95-5.53 99.55-5.53C99.15-5.53 98.89-5.27 98.89-4.88C98.89-4.48 99.15-4.22 99.55-4.22ZM99.15 4.30L99.96 4.30L99.96-2.89L99.15-2.89Z"/>
        <path fill="#80C2AE" opacity="0.75" d="M103.99 4.47C105.43 4.47 106.39 3.55 106.39 1.87L106.39-0.45C106.39-2.14 105.43-3.05 103.99-3.05C102.55-3.05 101.59-2.14 101.59-0.45L101.59 1.87C101.59 3.55 102.55 4.47 103.99 4.47ZM103.99 3.67C103.02 3.67 102.41 3.11 102.41 1.87L102.41-0.45C102.41-1.70 103.02-2.26 103.99-2.26C104.96-2.26 105.57-1.70 105.57-0.45L105.57 1.87C105.57 3.11 104.96 3.67 103.99 3.67Z"/>
        <path fill="#80C2AE" opacity="0.75" d="M110.69-3.05C109.81-3.05 109.20-2.64 108.83-2.00L108.69-2.89L108.02-2.89L108.02 4.30L108.83 4.30L108.83-0.05C108.83-1.45 109.48-2.29 110.48-2.29C111.43-2.29 111.81-1.63 111.81-0.18L111.81 4.30L112.62 4.30L112.62-0.30C112.62-2.27 111.85-3.05 110.69-3.05Z"/>
    </g>
</svg>